<svg width="24" height="24" viewBox="0 0 24 24" fill="none" xmlns="http://www.w3.org/2000/svg">
<path d="M12 15.4688H9.89062V23.2969C9.89062 23.6852 10.2054 24 10.5938 24H12H13.4062C13.7946 24 14.1094 23.6852 14.1094 23.2969V15.4688H12Z" fill="#DCE7F5"/>
<path d="M14.1094 23.2969V15.4688H12V24H13.4062C13.7946 24 14.1094 23.6852 14.1094 23.2969Z" fill="#C8D6EF"/>
<path d="M21.1406 2.10938V16.1719C21.1406 17.3391 20.1985 18.2812 19.0312 18.2812H4.96875C3.80152 18.2812 2.85938 17.3391 2.85938 16.1719V2.10938C2.85938 0.942141 3.80152 0 4.96875 0H19.0312C20.1985 0 21.1406 0.942141 21.1406 2.10938Z" fill="#FF637B"/>
<path d="M21.1406 2.10938V16.1719C21.1406 17.3391 20.1985 18.2812 19.0312 18.2812H12V0H19.0312C20.1985 0 21.1406 0.942141 21.1406 2.10938Z" fill="#FF3535"/>
<path d="M19.7344 2.10938V16.1719C19.7344 16.5657 19.425 16.875 19.0312 16.875H4.96875C4.57495 16.875 4.26562 16.5657 4.26562 16.1719V2.10938C4.26562 1.71558 4.57495 1.40625 4.96875 1.40625H19.0312C19.425 1.40625 19.7344 1.71558 19.7344 2.10938Z" fill="#0648CC"/>
<path d="M19.7344 2.10938V16.1719C19.7344 16.5657 19.425 16.875 19.0312 16.875H12V1.40625H19.0312C19.425 1.40625 19.7344 1.71558 19.7344 2.10938Z" fill="#053AA3"/>
<path d="M9.1875 15.4688C8.79886 15.4688 8.48438 15.1543 8.48438 14.7656V13.3594C8.48438 12.9707 8.79886 12.6562 9.1875 12.6562C9.57614 12.6562 9.89062 12.9707 9.89062 13.3594V14.7656C9.89062 15.1543 9.57614 15.4688 9.1875 15.4688Z" fill="#A7A4A4"/>
<path d="M14.8125 15.4688C14.4239 15.4688 14.1094 15.1543 14.1094 14.7656V13.3594C14.1094 12.9707 14.4239 12.6562 14.8125 12.6562C15.2011 12.6562 15.5156 12.9707 15.5156 13.3594V14.7656C15.5156 15.1543 15.2011 15.4688 14.8125 15.4688Z" fill="#A7A4A4"/>
<path d="M14.8125 2.8125H9.1875C8.02027 2.8125 7.07812 3.75464 7.07812 4.92188V13.3594C7.07812 13.7531 7.38745 14.0625 7.78125 14.0625H16.2188C16.6125 14.0625 16.9219 13.7531 16.9219 13.3594V4.92188C16.9219 3.75464 15.9797 2.8125 14.8125 2.8125Z" fill="#E0E0E0"/>
<path d="M16.9219 4.92188V13.3594C16.9219 13.7531 16.6125 14.0625 16.2188 14.0625H12V2.8125H14.8125C15.9797 2.8125 16.9219 3.75464 16.9219 4.92188Z" fill="#FAFAFA"/>
<path d="M13.4062 11.9531C13.7946 11.9531 14.1094 11.6383 14.1094 11.25C14.1094 10.8617 13.7946 10.5469 13.4062 10.5469C13.0179 10.5469 12.7031 10.8617 12.7031 11.25C12.7031 11.6383 13.0179 11.9531 13.4062 11.9531Z" fill="#053AA3"/>
<path d="M10.5938 11.9531C10.9821 11.9531 11.2969 11.6383 11.2969 11.25C11.2969 10.8617 10.9821 10.5469 10.5938 10.5469C10.2054 10.5469 9.89062 10.8617 9.89062 11.25C9.89062 11.6383 10.2054 11.9531 10.5938 11.9531Z" fill="#0648CC"/>
<path d="M11.2969 8.4375H8.48438V4.92188C8.48438 4.53356 8.79919 4.21875 9.1875 4.21875H11.2969V8.4375Z" fill="#0648CC"/>
<path d="M15.5156 8.4375H12.7031V4.21875H14.8125C15.2008 4.21875 15.5156 4.53356 15.5156 4.92188V8.4375Z" fill="#053AA3"/>
</svg>
