<svg width="24" height="24" viewBox="0 0 24 24" fill="none" xmlns="http://www.w3.org/2000/svg">
<path d="M11.9996 0C5.38305 0 0 5.38305 0 12.0004C0 18.617 5.38231 24 11.9996 24C12.4089 24 12.7395 23.6687 12.7395 23.2609C12.7395 22.8524 12.4089 22.5211 11.9996 22.5211C6.19855 22.5211 1.48039 17.8015 1.48039 12.0011C1.48039 6.20002 6.19855 1.48039 11.9996 1.48039C17.8007 1.48039 22.5181 6.20002 22.5181 12.0011C22.5181 14.4248 21.228 16.8287 19.3818 17.8455C18.711 18.2143 17.9837 18.3973 17.2078 18.4046C17.6736 18.1269 18.077 17.753 18.3767 17.2798C18.4355 17.1909 18.5134 17.1138 18.5516 17.0161C18.7925 16.4364 18.8138 15.7789 18.9593 15.1676C19.1378 14.3844 15.5371 12.8585 15.2242 13.8341C15.111 14.1963 14.9376 15.3388 14.7106 15.64C14.5086 15.9082 14.0105 15.7818 13.699 15.5166C12.8783 14.8172 11.9622 13.7886 11.1584 12.9768L11.1599 12.976C11.1393 12.9547 11.1143 12.9305 11.0923 12.9092C11.0695 12.8871 11.0467 12.8636 11.024 12.8416C10.2114 12.0386 9.18284 11.1239 8.48416 10.301C8.21967 9.98953 8.09184 9.49288 8.36073 9.29011C8.66195 9.06236 9.80512 8.89117 10.1666 8.7773C11.1408 8.46506 9.61557 4.86215 8.8324 5.04215C8.22114 5.18542 7.5636 5.20746 6.98393 5.4477C6.88548 5.48884 6.80907 5.56525 6.72018 5.62402C4.66379 6.92809 4.39857 10.0931 6.40573 12.4507C7.17054 13.3529 7.96841 14.2257 8.78979 15.078L8.78538 15.0809C8.80815 15.1037 8.83166 15.125 8.85517 15.147C8.87722 15.1698 8.89852 15.1926 8.91983 15.2168L8.92423 15.2124C9.77647 16.0338 10.7867 17.2431 12.428 18.3385C15.8832 20.6462 18.5347 20.0018 20.0966 19.1452C22.7929 17.6604 23.9993 14.4888 23.9993 12.0048C24 5.38305 18.6162 0 11.9996 0Z" fill="#FAFAFA"/>
</svg>
